<?xml version="1.0" standalone="no"?>
<!DOCTYPE svg PUBLIC "-//W3C//DTD SVG 20010904//EN"
 "http://www.w3.org/TR/2001/REC-SVG-20010904/DTD/svg10.dtd">
<svg version="1.0" xmlns="http://www.w3.org/2000/svg"
 width="136.000000pt" height="136.000000pt" viewBox="0 0 136.000000 136.000000"
 preserveAspectRatio="xMidYMid meet">
<metadata>
Created by potrace 1.14, written by Peter Selinger 2001-2017
</metadata>
<g transform="translate(0.000000,136.000000) scale(0.100000,-0.100000)"
fill="#000000" stroke="none">
<path d="M684 1305 c-3 -6 -20 -9 -39 -7 -20 2 -35 0 -35 -6 0 -6 -12 -12 -27
-14 -15 -2 -32 -12 -38 -23 -6 -13 -20 -20 -35 -19 -14 0 -30 -4 -37 -9 -7 -5
-18 -5 -24 -1 -9 5 -10 2 -6 -9 5 -14 -20 -47 -30 -38 -9 7 -66 -24 -94 -51
-30 -31 -109 -158 -109 -177 0 -6 -4 -11 -10 -11 -5 0 -16 -16 -25 -35 -18
-43 -31 -57 -71 -74 -43 -17 -59 -52 -59 -130 0 -53 5 -74 25 -107 27 -44 149
-156 162 -148 4 3 10 -8 14 -23 7 -31 41 -73 58 -73 6 0 22 -17 35 -39 18 -29
43 -48 98 -75 72 -36 146 -69 150 -67 2 0 23 -8 48 -19 25 -11 45 -17 45 -14
0 3 6 0 13 -5 26 -22 187 -100 219 -106 18 -4 71 -7 118 -8 95 -1 137 14 159
57 8 14 22 28 33 32 17 5 35 46 30 71 -1 6 6 33 17 60 30 75 31 178 3 209 -16
17 -62 124 -62 144 0 5 6 15 13 22 27 29 35 68 33 159 -4 107 -14 140 -54 174
-31 26 -86 101 -87 119 -2 25 -18 66 -26 66 -5 0 -9 11 -9 24 0 22 -3 24 -33
19 -29 -4 -37 0 -60 27 -15 17 -27 39 -27 47 0 14 -3 14 -20 -2 -18 -16 -20
-16 -26 -1 -3 9 -14 16 -24 16 -9 0 -25 9 -35 20 -21 23 -41 26 -48 8 -3 -10
-10 -8 -25 5 -23 21 -92 29 -98 12z"/>
</g>
</svg>
